REM DIRINDEX 1\2,1\3,1\4
REM DIRNAME cjc151,folder01,folder02,folder03
TITLE ""
FILE "111 111_TOEFL_3900.mp3" MP3
  TRACK 01 AUDIO
    TITLE "2:cjc151_4841"
    INDEX 01 00:00:00
  TRACK 02 AUDIO
    TITLE "0:"
    INDEX 01 00:01:30
  TRACK 03 AUDIO
    TITLE "3:cjc151_4842"
    INDEX 01 00:03:04
  TRACK 04 AUDIO
    TITLE "0:"
    INDEX 01 00:06:63
  TRACK 05 AUDIO
    TITLE "2:cjc151_4843"
    INDEX 01 00:08:42
  TRACK 06 AUDIO
    TITLE "0:"
    INDEX 01 00:09:51
  TRACK 07 AUDIO
    TITLE "3:cjc151_4844"
    INDEX 01 00:11:33
  TRACK 08 AUDIO
    TITLE "0:"
    INDEX 01 00:15:15
  TRACK 09 AUDIO
    TITLE "2:cjc151_4845"
    INDEX 01 00:16:69
  TRACK 10 AUDIO
    TITLE "0:"
    INDEX 01 00:20:24
  TRACK 11 AUDIO
    TITLE "3:cjc151_4846"
    INDEX 01 00:22:03
  TRACK 12 AUDIO
    TITLE "0:"
    INDEX 01 00:26:18
  TRACK 13 AUDIO
    TITLE "2:cjc151_4847"
    INDEX 01 00:28:04
  TRACK 14 AUDIO
    TITLE "0:"
    INDEX 01 00:29:11
  TRACK 15 AUDIO
    TITLE "3:cjc151_4848"
    INDEX 01 00:30:67
  TRACK 16 AUDIO
    TITLE "0:"
    INDEX 01 00:34:43
  TRACK 17 AUDIO
    TITLE "2:cjc151_4849"
    INDEX 01 00:36:21
  TRACK 18 AUDIO
    TITLE "0:"
    INDEX 01 00:37:40
  TRACK 19 AUDIO
    TITLE "3:cjc151_4850"
    INDEX 01 00:39:21
  TRACK 20 AUDIO
    TITLE "0:"
    INDEX 01 00:42:61
  TRACK 21 AUDIO
    TITLE "2:cjc151_4851"
    INDEX 01 00:44:40
  TRACK 22 AUDIO
    TITLE "0:"
    INDEX 01 00:45:65
  TRACK 23 AUDIO
    TITLE "3:cjc151_4852"
    INDEX 01 00:47:50
  TRACK 24 AUDIO
    TITLE "0:"
    INDEX 01 00:51:60
  TRACK 25 AUDIO
    TITLE "2:cjc151_4853"
    INDEX 01 00:53:39
  TRACK 26 AUDIO
    TITLE "0:"
    INDEX 01 00:55:32
  TRACK 27 AUDIO
    TITLE "3:cjc151_4854"
    INDEX 01 00:57:11
  TRACK 28 AUDIO
    TITLE "0:"
    INDEX 01 01:00:47
  TRACK 29 AUDIO
    TITLE "2:cjc151_4855"
    INDEX 01 01:02:32
  TRACK 30 AUDIO
    TITLE "0:"
    INDEX 01 01:05:54
  TRACK 31 AUDIO
    TITLE "3:cjc151_4856"
    INDEX 01 01:07:31
  TRACK 32 AUDIO
    TITLE "0:"
    INDEX 01 01:12:32
  TRACK 33 AUDIO
    TITLE "2:cjc151_4857"
    INDEX 01 01:14:12
  TRACK 34 AUDIO
    TITLE "0:"
    INDEX 01 01:15:48
  TRACK 35 AUDIO
    TITLE "3:cjc151_4858"
    INDEX 01 01:17:32
  TRACK 36 AUDIO
    TITLE "0:"
    INDEX 01 01:22:03
  TRACK 37 AUDIO
    TITLE "2:cjc151_4859"
    INDEX 01 01:23:62
  TRACK 38 AUDIO
    TITLE "0:"
    INDEX 01 01:25:43
  TRACK 39 AUDIO
    TITLE "3:cjc151_4860"
    INDEX 01 01:27:18
  TRACK 40 AUDIO
    TITLE "0:"
    INDEX 01 01:32:12
  TRACK 41 AUDIO
    TITLE "2:cjc151_4861"
    INDEX 01 01:33:66
  TRACK 42 AUDIO
    TITLE "0:"
    INDEX 01 01:35:33
  TRACK 43 AUDIO
    TITLE "3:cjc151_4862"
    INDEX 01 01:37:13
  TRACK 44 AUDIO
    TITLE "0:"
    INDEX 01 01:40:58
  TRACK 45 AUDIO
    TITLE "2:cjc151_4863"
    INDEX 01 01:42:37
  TRACK 46 AUDIO
    TITLE "0:"
    INDEX 01 01:43:45
  TRACK 47 AUDIO
    TITLE "3:cjc151_4864"
    INDEX 01 01:45:24
  TRACK 48 AUDIO
    TITLE "0:"
    INDEX 01 01:49:41
  TRACK 49 AUDIO
    TITLE "2:cjc151_4865"
    INDEX 01 01:51:21
  TRACK 50 AUDIO
    TITLE "0:"
    INDEX 01 01:52:22
  TRACK 51 AUDIO
    TITLE "3:cjc151_4866"
    INDEX 01 01:54:17
  TRACK 52 AUDIO
    TITLE "0:"
    INDEX 01 01:58:07
  TRACK 53 AUDIO
    TITLE "2:cjc151_4867"
    INDEX 01 01:59:61
  TRACK 54 AUDIO
    TITLE "0:"
    INDEX 01 02:01:43
  TRACK 55 AUDIO
    TITLE "3:cjc151_4868"
    INDEX 01 02:03:20
  TRACK 56 AUDIO
    TITLE "0:"
    INDEX 01 02:07:12
  TRACK 57 AUDIO
    TITLE "2:cjc151_4869"
    INDEX 01 02:08:66
  TRACK 58 AUDIO
    TITLE "0:"
    INDEX 01 02:10:06
  TRACK 59 AUDIO
    TITLE "3:cjc151_4870"
    INDEX 01 02:11:61
  TRACK 60 AUDIO
    TITLE "0:"
    INDEX 01 02:15:13
  TRACK 61 AUDIO
    TITLE "2:cjc151_4871"
    INDEX 01 02:16:72
  TRACK 62 AUDIO
    TITLE "0:"
    INDEX 01 02:18:18
  TRACK 63 AUDIO
    TITLE "3:cjc151_4872"
    INDEX 01 02:20:11
  TRACK 64 AUDIO
    TITLE "0:"
    INDEX 01 02:24:20
  TRACK 65 AUDIO
    TITLE "2:cjc151_4873"
    INDEX 01 02:25:74
  TRACK 66 AUDIO
    TITLE "0:"
    INDEX 01 02:27:16
  TRACK 67 AUDIO
    TITLE "3:cjc151_4874"
    INDEX 01 02:28:65
  TRACK 68 AUDIO
    TITLE "0:"
    INDEX 01 02:32:49
  TRACK 69 AUDIO
    TITLE "2:cjc151_4875"
    INDEX 01 02:34:24
  TRACK 70 AUDIO
    TITLE "0:"
    INDEX 01 02:35:39
  TRACK 71 AUDIO
    TITLE "3:cjc151_4876"
    INDEX 01 02:37:13
  TRACK 72 AUDIO
    TITLE "0:"
    INDEX 01 02:41:15
  TRACK 73 AUDIO
    TITLE "2:cjc151_4877"
    INDEX 01 02:42:69
  TRACK 74 AUDIO
    TITLE "0:"
    INDEX 01 02:44:36
  TRACK 75 AUDIO
    TITLE "3:cjc151_4878"
    INDEX 01 02:46:10
  TRACK 76 AUDIO
    TITLE "0:"
    INDEX 01 02:50:51
  TRACK 77 AUDIO
    TITLE "2:cjc151_4879"
    INDEX 01 02:52:34
  TRACK 78 AUDIO
    TITLE "0:"
    INDEX 01 02:53:59
  TRACK 79 AUDIO
    TITLE "3:cjc151_4880"
    INDEX 01 02:55:38
  TRACK 80 AUDIO
    TITLE "0:"
    INDEX 01 02:59:60
  TRACK 81 AUDIO
    TITLE "2:cjc151_4881"
    INDEX 01 03:01:47
  TRACK 82 AUDIO
    TITLE "0:"
    INDEX 01 03:02:66
  TRACK 83 AUDIO
    TITLE "3:cjc151_4882"
    INDEX 01 03:04:43
  TRACK 84 AUDIO
    TITLE "0:"
    INDEX 01 03:08:35
  TRACK 85 AUDIO
    TITLE "2:cjc151_4883"
    INDEX 01 03:10:14
  TRACK 86 AUDIO
    TITLE "0:"
    INDEX 01 03:11:18
  TRACK 87 AUDIO
    TITLE "3:cjc151_4884"
    INDEX 01 03:13:07
  TRACK 88 AUDIO
    TITLE "0:"
    INDEX 01 03:16:74
